{
    "asset" : {
        "generator" : "Khronos glTF Blender I/O v1.7.33",
        "version" : "2.0"
    },
    "scene" : 0,
    "scenes" : [
        {
            "name" : "Scene",
            "nodes" : [
                0
            ]
        }
    ],
    "nodes" : [
        {
            "mesh" : 0,
            "name" : "model_T",
            "rotation" : [
                0.06329650431871414,
                0.007509017363190651,
                0.009220844134688377,
                0.9979240298271179
            ]
        }
    ],
    "materials" : [
        {
            "doubleSided" : true,
            "name" : "New_Mat",
            "pbrMetallicRoughness" : {
                "baseColorTexture" : {
                    "index" : 0
                },
                "metallicFactor" : 0
            }
        }
    ],
    "meshes" : [
        {
            "name" : "model_TMesh",
            "primitives" : [
                {
                    "attributes" : {
                        "POSITION" : 0,
                        "NORMAL" : 1,
                        "TEXCOORD_0" : 2
                    },
                    "indices" : 3,
                    "material" : 0
                }
            ]
        }
    ],
    "textures" : [
        {
            "sampler" : 0,
            "source" : 0
        }
    ],
    "images" : [
        {
            "bufferView" : 4,
            "mimeType" : "image/jpeg",
            "name" : "model_T"
        }
    ],
    "accessors" : [
        {
            "bufferView" : 0,
            "componentType" : 5126,
            "count" : 9660,
            "max" : [
                0.09172727167606354,
                0.10505443066358566,
                0.15649664402008057
            ],
            "min" : [
                -0.10559772700071335,
                -0.14064756035804749,
                -0.1235581636428833
            ],
            "type" : "VEC3"
        },
        {
            "bufferView" : 1,
            "componentType" : 5126,
            "count" : 9660,
            "type" : "VEC3"
        },
        {
            "bufferView" : 2,
            "componentType" : 5126,
            "count" : 9660,
            "type" : "VEC2"
        },
        {
            "bufferView" : 3,
            "componentType" : 5123,
            "count" : 49242,
            "type" : "SCALAR"
        }
    ],
    "bufferViews" : [
        {
            "buffer" : 0,
            "byteLength" : 115920,
            "byteOffset" : 0
        },
        {
            "buffer" : 0,
            "byteLength" : 115920,
            "byteOffset" : 115920
        },
        {
            "buffer" : 0,
            "byteLength" : 77280,
            "byteOffset" : 231840
        },
        {
            "buffer" : 0,
            "byteLength" : 98484,
            "byteOffset" : 309120
        },
        {
            "buffer" : 0,
            "byteLength" : 1527066,
            "byteOffset" : 407604
        }
    ],
    "samplers" : [
        {
            "magFilter" : 9729,
            "minFilter" : 9987
        }
    ],
    "buffers" : [
        {
            "byteLength" : 1934672,
            "uri" : "data:application/octet-stream;base64,"
        }
    ]
}
